<?xml version="1.0" standalone="no"?>
<!DOCTYPE svg PUBLIC "-//W3C//DTD SVG 20010904//EN"
 "http://www.w3.org/TR/2001/REC-SVG-20010904/DTD/svg10.dtd">
<svg version="1.0" xmlns="http://www.w3.org/2000/svg"
 width="332.000000pt" height="332.000000pt" viewBox="0 0 332.000000 332.000000"
 preserveAspectRatio="xMidYMid meet">
<metadata>
Created by potrace 1.11, written by Peter Selinger 2001-2013
</metadata>
<g transform="translate(0.000000,332.000000) scale(0.100000,-0.100000)"
fill="#000000" stroke="none">
<path d="M400 2419 l0 -902 37 -46 c21 -25 43 -50 49 -56 6 -5 34 -38 62 -72
71 -87 75 -92 92 -111 8 -10 25 -29 36 -44 12 -15 48 -57 80 -94 33 -36 63
-74 68 -83 5 -9 12 -18 16 -21 3 -3 44 -50 90 -105 47 -55 88 -101 93 -103 4
-2 7 -8 7 -12 0 -5 10 -20 23 -33 26 -28 99 -113 152 -177 32 -40 79 -96 125
-150 8 -10 31 -37 50 -61 19 -24 42 -50 50 -58 9 -9 45 -51 80 -94 36 -43 84
-100 107 -125 l41 -47 24 30 c13 16 41 50 63 76 54 61 79 92 134 159 25 31 80
97 121 146 99 116 447 532 673 804 99 118 194 233 213 255 l34 40 0 893 0 892
-1260 0 -1260 0 0 -901z"/>
</g>
</svg>
